<svg xmlns="http://www.w3.org/2000/svg" width="1600" height="900" viewBox="0 0 1600 900">
<style>.bg{fill:#07131f}.top{fill:#091a2a}.nav{fill:#0b1f32}.panel{fill:#0f2538;stroke:#28445a}.title{fill:#e6f1ff;font:700 24px Arial}.h{fill:#e6f1ff;font:700 18px Arial}.t{fill:#b9c7d6;font:15px Arial}.s{fill:#8ea2b5;font:13px Arial}.g{fill:#24c768}.b{fill:#2f8cff}.y{fill:#ffb020}.r{fill:#ff4d4f}.node{fill:#112b42;stroke:#3c5f78}.flow{stroke:#24c768;stroke-width:4;marker-end:url(#arr)}</style>
<defs><marker id="arr" viewBox="0 0 10 10" refX="10" refY="5" markerWidth="6" markerHeight="6" orient="auto"><path d="M0,0 L10,5 L0,10 z" fill="#24c768"/></marker></defs>
<rect class="bg" width="1600" height="900"/><rect class="top" width="1600" height="58"/><text x="28" y="37" class="title">实时监控｜自动供件与单件分离 HMI</text><text x="620" y="36" class="t">运行中 ｜ PLC 在线 ｜ 相机 6/6 ｜ 光电正常 ｜ Docker 运行中 ｜ 容器 sing_cpu ｜ 操作员</text>
<rect class="nav" y="58" width="168" height="792"/><text x="38" y="120" class="b">实时监控</text><text x="38" y="170" class="t">报警中心</text><text x="38" y="220" class="t">任务统计</text><text x="38" y="270" class="t">日志查询</text><text x="38" y="320" class="t">包裹追踪</text><text x="38" y="370" class="t">系统设置</text><text x="38" y="420" class="t">工程诊断</text>
<rect class="panel" x="190" y="85" width="920" height="240" rx="10"/><text x="220" y="125" class="h">设备运行流程图</text><g><rect class="node" x="230" y="170" width="130" height="64" rx="6"/><text x="254" y="208" class="t">上游供件</text><rect class="node" x="410" y="170" width="130" height="64" rx="6"/><text x="434" y="208" class="t">缓存输送</text><rect class="node" x="590" y="170" width="130" height="64" rx="6"/><text x="614" y="208" class="t">居中整形</text><rect x="770" y="170" width="130" height="64" rx="6" fill="#3b3318" stroke="#ffb020"/><text x="795" y="208" class="y">分离矩阵</text><rect class="node" x="950" y="170" width="130" height="64" rx="6"/><text x="974" y="208" class="t">识别判定</text><line class="flow" x1="360" y1="202" x2="410" y2="202"/><line class="flow" x1="540" y1="202" x2="590" y2="202"/><line class="flow" x1="720" y1="202" x2="770" y2="202"/><line class="flow" x1="900" y1="202" x2="950" y2="202"/></g>
<rect class="panel" x="190" y="350" width="730" height="360" rx="10"/><text x="220" y="390" class="h">分离矩阵状态（5×4）</text><g font-family="Arial" font-size="14"> <rect x="225" y="425" width="120" height="58" rx="5" fill="#12304a" stroke="#3c5f78"/><text x="242" y="450" fill="#e6f1ff">1-1</text><text x="242" y="472" fill="#24c768">0.80 m/s</text><rect x="365" y="425" width="120" height="58" rx="5" fill="#12304a" stroke="#3c5f78"/><text x="382" y="450" fill="#e6f1ff">1-2</text><text x="382" y="472" fill="#24c768">0.80 m/s</text><rect x="505" y="425" width="120" height="58" rx="5" fill="#3a1620" stroke="#ff4d4f"/><text x="522" y="450" fill="#e6f1ff">1-3</text><text x="522" y="472" fill="#ff4d4f">故障</text><rect x="645" y="425" width="120" height="58" rx="5" fill="#12304a" stroke="#3c5f78"/><text x="662" y="450" fill="#e6f1ff">1-4</text><text x="662" y="472" fill="#24c768">0.80 m/s</text><rect x="225" y="505" width="120" height="58" rx="5" fill="#12304a" stroke="#3c5f78"/><text x="242" y="530" fill="#e6f1ff">2-1</text><text x="242" y="552" fill="#24c768">0.80 m/s</text><rect x="365" y="505" width="120" height="58" rx="5" fill="#3b3318" stroke="#ffb020"/><text x="382" y="530" fill="#e6f1ff">2-2</text><text x="382" y="552" fill="#ffb020">警告</text><rect x="505" y="505" width="120" height="58" rx="5" fill="#12304a" stroke="#3c5f78"/><text x="522" y="530" fill="#e6f1ff">2-3</text><text x="522" y="552" fill="#24c768">0.80 m/s</text><rect x="645" y="505" width="120" height="58" rx="5" fill="#12304a" stroke="#3c5f78"/><text x="662" y="530" fill="#e6f1ff">2-4</text><text x="662" y="552" fill="#24c768">0.80 m/s</text></g>
<rect class="panel" x="940" y="350" width="170" height="360" rx="10"/><text x="966" y="390" class="h">运行控制</text><rect x="970" y="430" width="110" height="54" rx="6" fill="#135d2d"/><text x="1008" y="465" class="title">开始</text><rect x="970" y="505" width="110" height="54" rx="6" fill="#8a1818"/><text x="1008" y="540" class="title">停止</text><rect x="970" y="585" width="110" height="50" rx="6" fill="#112b42" stroke="#3c5f78"/><text x="990" y="617" class="t">报警复位</text>
<rect class="panel" x="1135" y="85" width="420" height="300" rx="10"/><text x="1165" y="125" class="h">任务统计 / 系统资源</text><text x="1170" y="175" class="g">峰值效率 435 件/小时</text><text x="1170" y="215" class="b">累计包裹 4,497 件</text><text x="1170" y="255" class="y">人工处理 18.3%</text><text x="1360" y="175" class="t">CPU 18%</text><text x="1360" y="215" class="t">内存 62%</text><text x="1360" y="255" class="t">存储 41%</text><text x="1170" y="310" class="t">Docker：运行中　实时 JSON：2 秒前</text>
<rect class="panel" x="1135" y="410" width="420" height="300" rx="10"/><text x="1165" y="450" class="h">报警摘要</text><text x="1170" y="505" class="r">严重报警 2</text><text x="1170" y="545" class="y">一般报警 3</text><text x="1170" y="590" class="t">最近：MATRIX-2-2 光电遮挡</text><text x="1170" y="630" class="s">建议：检查 2-2 区域是否包裹卡滞</text>
<rect class="panel" x="190" y="735" width="1365" height="105" rx="10"/><text x="220" y="775" class="h">实时事件流</text><text x="220" y="815" class="s">16:21:28 INFO 算法启动成功　16:21:15 WARN 分离矩阵 2-2 光电遮挡　16:20:59 ERROR PLC 通信延迟</text>
<rect y="850" width="1600" height="50" fill="#091a2a"/><text x="28" y="881" class="s">底部状态：系统正常｜算法心跳 2 秒前｜配置 /opt/hmi/config/algorithm_config.json｜刷新 16:21:34</text>
</svg>