<svg xmlns="http://www.w3.org/2000/svg" width="1600" height="900" viewBox="0 0 1600 900">
<style>.bg{fill:#07131f}.top{fill:#091a2a}.nav{fill:#0b1f32}.panel{fill:#0f2538;stroke:#28445a}.title{fill:#e6f1ff;font:700 24px Arial}.h{fill:#e6f1ff;font:700 18px Arial}.t{fill:#b9c7d6;font:15px Arial}.s{fill:#8ea2b5;font:13px Arial}.g{fill:#24c768}.b{fill:#2f8cff}.y{fill:#ffb020}.r{fill:#ff4d4f}.field{fill:#0b1f32;stroke:#31566f}.btn{fill:#12304a;stroke:#3c5f78}</style>
<rect class="bg" width="1600" height="900"/><rect class="top" width="1600" height="58"/><text x="28" y="37" class="title">系统设置｜自动供件与单件分离 HMI</text><text x="660" y="36" class="t">管理员模式 ｜ Docker 运行中 ｜ 配置校验通过 ｜ 保存后需重启算法容器生效</text>
<rect class="nav" y="58" width="168" height="792"/><text x="38" y="120" class="t">实时监控</text><text x="38" y="170" class="t">报警中心</text><text x="38" y="220" class="t">任务统计</text><text x="38" y="270" class="t">日志查询</text><text x="38" y="320" class="t">包裹追踪</text><text x="38" y="370" class="b">系统设置</text><text x="38" y="420" class="t">工程诊断</text>
<rect class="panel" x="190" y="85" width="560" height="210" rx="10"/><text x="220" y="125" class="h">场地信息</text><rect class="field" x="220" y="155" width="220" height="38" rx="4"/><text x="235" y="180" class="t">场地：自动供件</text><rect class="field" x="470" y="155" width="220" height="38" rx="4"/><text x="485" y="180" class="t">产线：一号单件分离线</text><rect class="field" x="220" y="210" width="220" height="38" rx="4"/><text x="235" y="235" class="t">设备类型：单件分离</text><rect class="field" x="470" y="210" width="220" height="38" rx="4"/><text x="485" y="235" class="t">设备编号：SPC-01</text>
<rect class="panel" x="780" y="85" width="430" height="210" rx="10"/><text x="810" y="125" class="h">运行控制</text><text x="810" y="170" class="t">开机启动：关闭</text><text x="810" y="205" class="t">进站自动启动：关闭</text><text x="810" y="240" class="t">操作冷却：3 秒 ｜ 脚本严格校验：开启</text>
<rect class="panel" x="1240" y="85" width="320" height="210" rx="10"/><text x="1270" y="125" class="h">系统摘要</text><text x="1270" y="170" class="g">CPU 18% ｜ 内存 62%</text><text x="1270" y="205" class="g">数据库：正常</text><text x="1270" y="240" class="g">PLC：在线 ｜ Docker：运行中</text>
<rect class="panel" x="190" y="325" width="640" height="280" rx="10"/><text x="220" y="365" class="h">文件路径</text><rect class="field" x="220" y="395" width="520" height="36" rx="4"/><text x="235" y="419" class="t">算法配置：/opt/singData/config/app_config.json</text><rect class="btn" x="755" y="395" width="50" height="36" rx="4"/><text x="768" y="419" class="s">选择</text><rect class="field" x="220" y="445" width="520" height="36" rx="4"/><text x="235" y="469" class="t">算法数据库：/opt/singData/db/sz_database.db</text><rect class="btn" x="755" y="445" width="50" height="36" rx="4"/><text x="768" y="469" class="s">选择</text><rect class="field" x="220" y="495" width="520" height="36" rx="4"/><text x="235" y="519" class="t">算法日志：/opt/singData/log/item_separate.log</text><rect class="btn" x="755" y="495" width="50" height="36" rx="4"/><text x="768" y="519" class="s">选择</text><rect class="field" x="220" y="545" width="520" height="36" rx="4"/><text x="235" y="569" class="t">实时 JSON：/opt/singData/real_time_data.json</text><rect class="btn" x="755" y="545" width="50" height="36" rx="4"/><text x="768" y="569" class="s">选择</text>
<rect class="panel" x="860" y="325" width="700" height="280" rx="10"/><text x="890" y="365" class="h">Docker / 算法服务</text><text x="890" y="410" class="t">容器名：sing_cpu ｜ 镜像：single-piece-algo:v1.0.6 ｜ 网络：host</text><text x="890" y="450" class="t">宿主机配置目录：/opt/singData/config  →  容器内：/app/config</text><text x="890" y="490" class="t">宿主机日志目录：/opt/singData/log  →  容器内：/app/log</text><text x="890" y="530" class="t">启动脚本：/opt/hmi/scripts/start_algorithm.sh</text><text x="890" y="570" class="t">停止脚本：/opt/hmi/scripts/stop_algorithm.sh ｜ 健康超时：5 秒</text>
<rect class="panel" x="190" y="635" width="1370" height="110" rx="10"/><text x="220" y="675" class="h">界面与权限</text><text x="220" y="715" class="t">主题：深色工业主题 ｜ 语言：简体中文 ｜ 默认首页：实时监控 ｜ 操作员→管理员需要密码，管理员→操作员无需密码</text>
<rect x="960" y="770" width="120" height="50" rx="6" fill="#12304a" stroke="#3c5f78"/><text x="1005" y="802" class="t">导入</text><rect x="1100" y="770" width="120" height="50" rx="6" fill="#12304a" stroke="#3c5f78"/><text x="1145" y="802" class="t">导出</text><rect x="1240" y="770" width="120" height="50" rx="6" fill="#3b3318" stroke="#ffb020"/><text x="1285" y="802" class="y">应用</text><rect x="1380" y="770" width="120" height="50" rx="6" fill="#135d2d"/><text x="1425" y="802" class="title">保存</text>
<rect y="850" width="1600" height="50" fill="#091a2a"/><text x="28" y="881" class="s">底部状态：配置校验通过｜所有高风险修改写 operation_audit｜保存配置不直接破坏现有部署路径</text>
</svg>