<svg xmlns="http://www.w3.org/2000/svg" width="1600" height="900" viewBox="0 0 1600 900">
<style>.bg{fill:#07131f}.top{fill:#091a2a}.nav{fill:#0b1f32}.panel{fill:#0f2538;stroke:#28445a}.title{fill:#e6f1ff;font:700 24px Arial}.h{fill:#e6f1ff;font:700 18px Arial}.t{fill:#b9c7d6;font:15px Arial}.s{fill:#8ea2b5;font:13px Arial}.g{fill:#24c768}.b{fill:#2f8cff}.y{fill:#ffb020}.r{fill:#ff4d4f}.tab{fill:#112b42;stroke:#3c5f78}.active{fill:#153752;stroke:#2f8cff}</style>
<rect class="bg" width="1600" height="900"/><rect class="top" width="1600" height="58"/><text x="28" y="37" class="title">工程诊断｜自动供件与单件分离 HMI</text><text x="620" y="36" class="t">管理员模式 ｜ 健康评分 92/100 ｜ Docker 正常 ｜ 算法心跳 2 秒前 ｜ 最近检测 16:21:34</text>
<rect class="nav" y="58" width="168" height="792"/><text x="38" y="120" class="t">实时监控</text><text x="38" y="170" class="t">报警中心</text><text x="38" y="220" class="t">任务统计</text><text x="38" y="270" class="t">日志查询</text><text x="38" y="320" class="t">包裹追踪</text><text x="38" y="370" class="t">系统设置</text><text x="38" y="420" class="b">工程诊断</text>
<g><rect class="active" x="190" y="80" width="140" height="42" rx="6"/><text x="220" y="107" class="b">系统状态</text><rect class="tab" x="340" y="80" width="170" height="42" rx="6"/><text x="363" y="107" class="t">Docker/算法服务</text><rect class="tab" x="520" y="80" width="120" height="42" rx="6"/><text x="550" y="107" class="t">相机诊断</text><rect class="tab" x="650" y="80" width="120" height="42" rx="6"/><text x="680" y="107" class="t">算法性能</text><rect class="tab" x="780" y="80" width="120" height="42" rx="6"/><text x="810" y="107" class="t">设备通信</text><rect class="tab" x="910" y="80" width="100" height="42" rx="6"/><text x="937" y="107" class="t">I/O检测</text><rect class="tab" x="1020" y="80" width="130" height="42" rx="6"/><text x="1045" y="107" class="t">存储资源</text><rect class="tab" x="1160" y="80" width="120" height="42" rx="6"/><text x="1190" y="107" class="t">故障排查</text></g>
<rect class="panel" x="190" y="145" width="300" height="180" rx="10"/><text x="220" y="185" class="h">整体健康状态</text><text x="245" y="245" class="g" style="font:700 56px Arial">92</text><text x="330" y="245" class="t">/100</text><text x="220" y="285" class="t">正常 38 ｜ 警告 3 ｜ 异常 1</text>
<rect class="panel" x="520" y="145" width="1040" height="180" rx="10"/><text x="550" y="185" class="h">核心状态卡片</text><text x="555" y="235" class="g">Docker 服务：正常</text><text x="755" y="235" class="g">算法容器：运行中</text><text x="985" y="235" class="g">算法心跳：2 秒前</text><text x="1235" y="235" class="y">实时 JSON：正常更新</text><text x="555" y="280" class="g">相机系统：6/6</text><text x="755" y="280" class="g">PLC：在线</text><text x="985" y="280" class="g">I/O：24/24</text><text x="1235" y="280" class="g">数据库：正常</text>
<rect class="panel" x="190" y="350" width="650" height="230" rx="10"/><text x="220" y="390" class="h">性能趋势</text><polyline points="230,520 280,470 330,500 380,455 430,480 480,430 530,460 580,420 630,440 700,410 790,435" fill="none" stroke="#2f8cff" stroke-width="4"/><text x="230" y="550" class="s">CPU / 内存 / 容器资源 / 相机帧率 / 网络延迟 / 磁盘 I/O</text>
<rect class="panel" x="870" y="350" width="690" height="230" rx="10"/><text x="900" y="390" class="h">Docker / 算法服务诊断</text><text x="900" y="435" class="t">容器：sing_cpu ｜ 镜像：single-piece-algo:v1.0.6 ｜ 运行时长：00:15:42</text><text x="900" y="475" class="t">退出码：0 ｜ 重启次数：0 ｜ CPU：18% ｜ 内存：512MB</text><text x="900" y="515" class="t">配置挂载：正常 ｜ 日志挂载：正常 ｜ 最近 ERROR：0</text><text x="900" y="555" class="s">HMI 通过脚本/systemd 控制容器，不直接暴露 docker.sock。</text>
<rect class="panel" x="190" y="610" width="650" height="220" rx="10"/><text x="220" y="650" class="h">异常与告警</text><text x="220" y="695" class="r">16:19:45 严重 相机-03 图像采集超时</text><text x="220" y="735" class="y">16:18:33 警告 光电-05 信号不稳定</text><text x="220" y="775" class="y">16:16:02 警告 Docker 容器日志出现 ERROR</text><text x="220" y="815" class="s">建议：先检查实时 JSON 更新时间，再检查容器日志与相机链路。</text>
<rect class="panel" x="870" y="610" width="330" height="220" rx="10"/><text x="900" y="650" class="h">快捷诊断工具</text><text x="900" y="695" class="t">系统自检</text><text x="900" y="730" class="t">Docker 诊断</text><text x="900" y="765" class="t">日志收集</text><text x="900" y="800" class="t">生成诊断报告</text>
<rect class="panel" x="1230" y="610" width="330" height="220" rx="10"/><text x="1260" y="650" class="h">诊断报告摘要</text><text x="1260" y="695" class="t">检测项：42</text><text x="1260" y="730" class="t">发现问题：4</text><text x="1260" y="765" class="t">建议操作：3</text><text x="1260" y="800" class="b">导出诊断报告</text>
<rect y="850" width="1600" height="50" fill="#091a2a"/><text x="28" y="881" class="s">底部状态：Docker 正常｜算法心跳 2 秒前｜实时 JSON 正常｜日志无阻塞读取｜诊断报告可导出</text>
</svg>