<svg xmlns="http://www.w3.org/2000/svg" width="1600" height="900" viewBox="0 0 1600 900">
<style>.bg{fill:#07131f}.top{fill:#091a2a}.nav{fill:#0b1f32}.panel{fill:#0f2538;stroke:#28445a}.title{fill:#e6f1ff;font:700 24px Arial}.h{fill:#e6f1ff;font:700 18px Arial}.t{fill:#b9c7d6;font:15px Arial}.s{fill:#8ea2b5;font:13px Arial}.g{fill:#24c768}.b{fill:#2f8cff}.y{fill:#ffb020}.r{fill:#ff4d4f}.tab{fill:#112b42;stroke:#3c5f78}.active{fill:#153752;stroke:#2f8cff}.grid{stroke:#244057;stroke-width:1}.bar1{fill:#2f8cff}.bar2{fill:#24c768}.bar3{fill:#ffb020}.line1{fill:none;stroke:#2f8cff;stroke-width:4}.line2{fill:none;stroke:#24c768;stroke-width:4}.line3{fill:none;stroke:#ffb020;stroke-width:4}</style>
<rect class="bg" width="1600" height="900"/><rect class="top" width="1600" height="58"/><text x="28" y="37" class="title">统计分析｜自动供件与单件分离 HMI</text><text x="620" y="36" class="t">今日 08:00-16:00 ｜ 峰值效率 435 件/小时 ｜ 平均效率 392 件/小时 ｜ 异常率 1.8% ｜ 数据刷新 16:21:34</text>
<rect class="nav" y="58" width="168" height="792"/><text x="38" y="110" class="t">实时监控</text><text x="38" y="158" class="t">报警中心</text><text x="38" y="206" class="t">任务统计</text><text x="38" y="254" class="b">统计分析</text><text x="38" y="302" class="t">日志查询</text><text x="38" y="350" class="t">包裹追踪</text><text x="38" y="398" class="t">系统设置</text><text x="38" y="446" class="t">工程诊断</text>
<g><rect class="active" x="190" y="80" width="110" height="42" rx="6"/><text x="218" y="107" class="b">今日</text><rect class="tab" x="312" y="80" width="110" height="42" rx="6"/><text x="340" y="107" class="t">昨天</text><rect class="tab" x="434" y="80" width="130" height="42" rx="6"/><text x="459" y="107" class="t">近7天</text><rect class="tab" x="576" y="80" width="130" height="42" rx="6"/><text x="598" y="107" class="t">近30天</text><rect class="tab" x="718" y="80" width="150" height="42" rx="6"/><text x="746" y="107" class="t">自定义</text><rect class="tab" x="1330" y="80" width="100" height="42" rx="6"/><text x="1360" y="107" class="t">导出</text><rect class="tab" x="1445" y="80" width="110" height="42" rx="6"/><text x="1470" y="107" class="t">刷新</text></g>
<rect class="panel" x="190" y="145" width="260" height="125" rx="10"/><text x="215" y="185" class="h">总处理量</text><text x="215" y="235" class="b" style="font:700 42px Arial">4,497</text><text x="340" y="235" class="t">件</text>
<rect class="panel" x="470" y="145" width="260" height="125" rx="10"/><text x="495" y="185" class="h">峰值效率</text><text x="495" y="235" class="g" style="font:700 42px Arial">435</text><text x="610" y="235" class="t">件/小时</text>
<rect class="panel" x="750" y="145" width="260" height="125" rx="10"/><text x="775" y="185" class="h">异常率</text><text x="775" y="235" class="y" style="font:700 42px Arial">1.8%</text><text x="890" y="235" class="t">可控</text>
<rect class="panel" x="1030" y="145" width="260" height="125" rx="10"/><text x="1055" y="185" class="h">人工处理占比</text><text x="1055" y="235" class="y" style="font:700 42px Arial">18.3%</text><text x="1190" y="235" class="t">偏高</text>
<rect class="panel" x="1310" y="145" width="250" height="125" rx="10"/><text x="1335" y="185" class="h">设备有效运行</text><text x="1335" y="235" class="g" style="font:700 42px Arial">92.6%</text>
<rect class="panel" x="190" y="300" width="650" height="260" rx="10"/><text x="220" y="340" class="h">效率趋势</text><line class="grid" x1="230" y1="510" x2="800" y2="510"/><line class="grid" x1="230" y1="460" x2="800" y2="460"/><line class="grid" x1="230" y1="410" x2="800" y2="410"/><polyline class="line1" points="235,500 290,470 345,455 400,430 455,420 510,390 565,405 620,370 675,385 730,355 795,365"/><polyline class="line2" points="235,520 290,500 345,492 400,475 455,460 510,455 565,450 620,430 675,425 730,410 795,405"/><text x="230" y="540" class="s">蓝色：小时效率 ｜ 绿色：平均效率基线</text>
<rect class="panel" x="870" y="300" width="690" height="260" rx="10"/><text x="900" y="340" class="h">流向占比分析</text><rect x="930" y="390" width="90" height="120" class="bar1"/><rect x="1060" y="430" width="90" height="80" class="bar2"/><rect x="1190" y="455" width="90" height="55" class="bar3"/><rect x="1320" y="475" width="90" height="35" fill="#ff4d4f"/><text x="925" y="535" class="s">供包台 62%</text><text x="1055" y="535" class="s">循环 23%</text><text x="1185" y="535" class="s">人工 18%</text><text x="1315" y="535" class="s">剔除 4%</text>
<rect class="panel" x="190" y="590" width="430" height="240" rx="10"/><text x="220" y="630" class="h">异常与报警关联</text><text x="220" y="675" class="r">相机识别异常：23 次</text><text x="220" y="715" class="y">光电遮挡超时：17 次</text><text x="220" y="755" class="y">Docker 日志 ERROR：3 次</text><text x="220" y="795" class="s">建议：优先排查相机-03 与矩阵 2-2 区域。</text>
<rect class="panel" x="650" y="590" width="430" height="240" rx="10"/><text x="680" y="630" class="h">设备利用率排行</text><text x="680" y="675" class="g">分离矩阵：96.5%</text><text x="680" y="715" class="g">缓存输送：94.2%</text><text x="680" y="755" class="y">供包台：81.4%</text><text x="680" y="795" class="s">低利用设备需结合报警与人工处理占比分析。</text>
<rect class="panel" x="1110" y="590" width="450" height="240" rx="10"/><text x="1140" y="630" class="h">分时统计表</text><text x="1140" y="675" class="t">08:00-09:00 ｜ 392 件 ｜ 异常 8 ｜ 效率 392/h</text><text x="1140" y="715" class="t">09:00-10:00 ｜ 421 件 ｜ 异常 6 ｜ 效率 421/h</text><text x="1140" y="755" class="t">10:00-11:00 ｜ 435 件 ｜ 异常 5 ｜ 效率 435/h</text><text x="1140" y="795" class="s">支持导出 CSV / Excel，用于班次复盘。</text>
<rect y="850" width="1600" height="50" fill="#091a2a"/><text x="28" y="881" class="s">底部状态：统计数据来自 statistics_minute / runtime_event / alarm_event / package_trace 聚合｜刷新周期 30 秒</text>
</svg>